<svg xmlns="http://www.w3.org/2000/svg" width="42" height="41">
    <path fill-rule="evenodd" fill="#111" d="M21.301 0c11.322 0 20.5 9.177 20.5 20.499 0 11.323-9.178 20.5-20.5 20.5s-20.5-9.177-20.5-20.5C.801 9.177 9.979 0 21.301 0z"/>
    <path fill-rule="evenodd" fill="#FFF" d="M26.181 22.773c-1.21 0-2.276.603-2.931 1.52l-4.389-2.499c.063-.266.104-.54.104-.825 0-.285-.041-.559-.104-.825l4.389-2.498a3.599 3.599 0 0 0 2.931 1.519 3.611 3.611 0 0 0 3.608-3.608 3.612 3.612 0 0 0-3.608-3.608 3.612 3.612 0 0 0-3.608 3.608c0 .129.025.251.038.376l-4.461 2.616c-.795-.724-1.737-1.188-2.793-1.188a3.611 3.611 0 0 0-3.608 3.608 3.611 3.611 0 0 0 3.608 3.608c1.056 0 1.998-.464 2.793-1.188l4.461 3.111c-.013-.369-.038-.247-.038-.119a3.611 3.611 0 0 0 3.608 3.608 3.611 3.611 0 0 0 3.608-3.608 3.611 3.611 0 0 0-3.608-3.608z"/>
</svg>
