<svg xmlns="http://www.w3.org/2000/svg" width="262" height="50">
    <path fill-rule="evenodd" fill="#111" d="M260.467 35.3h-4.15v-8.145l-1.863 5.039h-4.525l-2.337-5.039V35.3h-4.793l.066-19.077h4.393s.162.467.334 1.737c1.383 2.38 2.882 5.574 4.508 8.958 1.082-2.726 2.212-5.317 3.327-7.518 1.353-1.911 1.238-3.177 1.238-3.177h4.461v3.043c0 4.692.033 16.034.033 16.034h-.692zm-20.966-5.559c-.031 2.828-1.152 4.596-3.887 5.083-.328.059-.661.104-.995.144h-4.998c-.324-.033-.649-.058-.966-.113-2.909-.497-3.543-2.878-3.205-4.896-.571-5.001-.465-8.537-.462-13.771h4.615c0 2.384.002 4.662-.001 6.937-.001 1.849.062 3.702-.034 5.546-.097 1.863.612 2.817 2.549 2.807 1.879-.01 2.689-.89 2.666-2.767-.052-4.177-.017-8.497-.017-12.523h4.745c-.002 3.342.025 10.211-.01 13.553zm-29.334 3.731c.015-5.33-.027-10.661.063-15.991.006.509.45-1.293 1.07-1.293h9.868v3.547h-6.009v3.599h6.821v3.653h-6.812v4.309h6v3.672h-10.417c-.45-.265-.587-.779-.584-1.496zm-6.646-9.322c3.067 1.146 4.226 3.198 3.769 6.533-.187 1.787-.745 2.461-1.659 3.228-1.256 1.053-3.011 1.204-4.181 1.241-1.61.028-2.82-.022-4.01-.219-1.02-.17-2.016-.446-2.791-1.161-.521-.48-.924-1.08-1.218-1.262-.305-1.124-.497-1.841-.575-2.568a6.377 6.377 0 0 1-.027-1.079c.005-.087.097-1.017.154-1.011.245.024 2.791 0 3.962 0 .018 0 .425.696.515.761.36.244-.342 1.227-.25.699.421 1.049.987 1.932 2.162 2.162.913.179 1.999-.008 3.618-.612.306-.992-.192-2.247-1.538-2.872-1.541-.715-3.182-1.218-4.763-1.853-2.708-.647-3.129-2.769-3.314-5.933.18-1.783 1.009-3.074 2.553-3.762.493.508 2.191-.603 4.21-.603 1.484 0 2.792.138 3.578.349h.034c2.685.771 3.617 2.727 3.021 6.16h-4.252s.019-.174-.212-1.511c.063-1.553-2.588-2.052-3.752-.952-.988.935-.677 2.314.725 2.852 1.39.534 2.846.892 4.241 1.413zm-13.61 5.591c-.03 2.828-1.151 4.596-3.661 5.083-.553.059-.886.104-.95.144h-4.99c-.602-.033-.927-.058-.66-.113-3.493-.497-4.127-2.878-4.194-4.896-.166-5.001-.061-8.537-.057-13.771h4.741c0 2.384.02 4.662-.01 6.937-.01 1.849.61 3.702-.151 5.546-.097 1.863.611 2.817 2.548 2.807.271-.001.903-.023.743-.061 1.35-.225 1.943-1.099 1.923-2.706-.052-4.177-.016-8.497-.016-12.523h4.744c-.001 3.342.026 10.211-.01 13.553zM171.276 35.3h-4.15v-8.145l-1.863 5.039h-4.525l-2.336-5.039V35.3h-4.794l.066-19.077h4.996s-.441.467-.268 1.737c1.381 2.38 2.881 5.574 4.407 8.958 1.182-2.726 2.312-5.317 3.427-7.518.651-1.911 1.238-3.177 1.238-3.177h4.461v3.043c0 4.692.033 16.034.033 16.034h-.692zm-26.158-.332h-4.15V27.12l-1.863 5.038h-4.524l-2.337-5.038v7.848h-4.793l.065-18.78h4.394s.8.468.334 1.432c1.382 2.685 2.881 5.879 4.408 9.264 1.181-2.727 2.311-5.318 4.128-7.915-.051-1.515.537-2.781.537-2.781h4.461v3.043c-.001 4.692.033 15.737.033 15.737h-.693zm-25.801-18.78h4.571v18.78h-4.575l.004-18.78zm-13.693 0h4.534v15.126c2.262 0 6.517-.013 6.517-.013v3.667h-11.051v-18.78zm-14.902 0h11.618v3.551h-6.736v3.6h6.736v3.657h-6.682v4.318c1.848 0 4.614.066 6.682-.02v3.674H90.789s-.067-12.767-.067-18.78zm-8.203 15.761h-4.545l-.764 3.019s-4.544.222-4.787 0c1.046-3.59 2.083-7.304 3.13-10.038.676-3.142 2.027-8.742 2.027-8.742h5.522s5.154 18.24 5.141 18.78h-4.878l-.846-3.019zm-2.108-9.542c-.125-.01-.25.011-.041 0-.675 1.756-1.017 3.511-1.383 5.385h2.425c.258-1.842-.673-3.629-1.001-5.385zm-13.59 12.166c-1.572.226-3.162.333-4.191.395h-6.768s-.05-18.053 0-18.78h10.572c2.777.598 4.015 2.469 4.01 5.702-.004 2.628.014 5.255-.004 7.883-.018 2.514-1.189 4.451-3.619 4.8zm-3.611-14.83c-.947.02-1.706.003-2.552.003v11.565c.653 0 1.141-.002 1.629 0 3.092.009 3.442-.336 3.444-3.408.002-1.778-.098-3.562.025-5.331.144-2.053-.781-2.88-2.546-2.829z"/>
    <path fill="none" d="M0 0h49.999v49.999H0V0z"/>
    <path fill-rule="evenodd" fill="#111" d="M31.24 44.868c-2.041.611-4.105.985-6.096.928-9.368.159-18.423-6.367-20.448-16.428-1.709-8.49 1.026-15.525 7.694-20.862 4.32-3.016 9.363-4.719 14.797-4.193 8.758.846 16.127 7.455 18.104 16.119 2.389 10.475-3.898 21.396-14.051 24.436zM24.976 8.876C16.117 8.883 8.867 16.137 8.859 25c-.007 8.889 7.28 16.176 16.251 16.15 8.798-.025 15.99-7.23 15.996-15.86.006-9.182-7.225-16.422-16.13-16.414zm5.144 26.563c-1.279.364-2.63.731-3.958 1.271-2.449-.539-4.906-.603-7.36-.607-.102-.001-1.025-.235-1.027-.633-.006-3.791-.002-7.159-.003-10.527-.001-3.303-.002-6.607 0-9.603.001-1.373.173-1.543 2.028-1.543 1.62-.001 4.031-.016 6.442.007 2.018.016 3.528 1.026 5.131 1.149 1.836.996 2.801 2.532 2.794 4.681-.01 3.826.793 6.825.017 10.235.083 3.851-1.78 4.919-4.064 5.57zm-1.351-14.73c-.001-1.354-.524-2.129-1.838-2.325-1.25-.188-2.533-.155-3.021-.22v13.495c-.006 0 .74.002 1.484-.001.32 0 .976.01.961-.022 2.355-.17 2.415-.959 2.415-2.709 0-2.739.002-5.478-.001-8.218z"/>
</svg>
