<svg xmlns="http://www.w3.org/2000/svg" width="71" height="71">
    <path fill="none" d="M.766.404h69.691v69.69H.766V.404z"/>
    <path fill-rule="evenodd" fill="#111" d="M69.697 13.804a29.309 29.309 0 0 1-8.212 2.223c2.954-1.744 5.229-4.504 6.291-7.787a28.693 28.693 0 0 1-9.084 3.413 14.395 14.395 0 0 0-10.443-4.459c-7.903 0-14.298 6.304-14.298 14.077 0 1.104.118 2.179.369 3.21-11.891-.58-22.438-6.188-29.483-14.716a13.893 13.893 0 0 0-1.936 7.075c0 4.881 2.541 9.196 6.382 11.724a14.143 14.143 0 0 1-6.5-1.758v.174c0 6.829 4.934 12.508 11.477 13.802a14.64 14.64 0 0 1-3.766.493c-.917 0-1.817-.087-2.689-.261 1.817 5.593 7.106 9.661 13.368 9.777-4.889 3.777-11.063 6.029-17.769 6.029-1.152 0-2.29-.073-3.413-.203 6.308 4.039 13.827 6.363 21.892 6.363 26.337 0 40.724-21.458 40.724-40.067 0-.611-.016-1.221-.044-1.817a28.862 28.862 0 0 0 7.134-7.292z"/>
</svg>
