<svg xmlns="http://www.w3.org/2000/svg" width="50" height="50">
    <path fill="none" d="M0 0h50v50H0V0z"/>
    <path fill-rule="evenodd" d="M38.19 48.995H11.812c-2.096 0-3.813-1.708-3.813-3.796V23.802c0-2.087 1.717-3.796 3.813-3.796H38.19c2.097 0 3.813 1.709 3.813 3.796v21.397c0 2.088-1.716 3.796-3.813 3.796zm-4.979-18.943-1.29-1.284a.96.96 0 0 0-1.349 0l-6.936 6.905-3.162-3.089a.96.96 0 0 0-1.349.012l-1.276 1.296a.95.95 0 0 0 .012 1.343l5.104 4.987c.048.047.1.087.155.122a.96.96 0 0 0 1.211-.11l8.88-8.84a.95.95 0 0 0 0-1.342zm-.542-21.936a2.382 2.382 0 0 0-2.384-2.372H19.717a2.38 2.38 0 0 0-2.382 2.372v9.043h-4.768V8.116c0-3.925 3.208-7.118 7.15-7.118h10.568c3.942 0 7.15 3.193 7.15 7.118v9.043h-4.766V8.116z"/>
</svg>
