<svg xmlns="http://www.w3.org/2000/svg" width="37" height="36">
    <path fill-rule="evenodd" fill="#111" d="M18.421 0C28.164 0 36.62 7.897 36.62 17.64s-8.456 17.641-18.199 17.641c-9.742 0-17.64-7.898-17.64-17.641C.781 7.897 8.679 0 18.421 0z"/>
    <path fill-rule="evenodd" fill="#FFF" d="M19.238 14.12c0-1.419.619-1.29 1.756-1.29.594 0 1.138-.574 1.558-.278l1.014-2.794c-.717-.495-1.855-.348-2.943-.348-3.314 0-5.144 1.585-5.144 4.577v.594h-2.052v2.967h2.052v8.674h3.859v-8.674h3.313v-2.967h-3.413v-.461z"/>
</svg>
