<svg xmlns="http://www.w3.org/2000/svg" width="50" height="50">
    <path fill="none" d="M0 0h50v50H0V0z"/>
    <path fill-rule="evenodd" d="M46.153 48.996H19.511c-2.118 0-3.85-1.708-3.85-3.796V23.803c0-2.088 1.732-3.796 3.85-3.796h26.642c2.12 0 3.852 1.708 3.852 3.796V45.2c0 2.088-1.732 3.796-3.852 3.796zm-13.321-19.82c-1.715 0-3.106 1.372-3.106 3.063 0 .878.378 1.669.979 2.228v4.99a.96.96 0 0 0 .964.949h1.926a.96.96 0 0 0 .963-.949v-4.672a3.049 3.049 0 0 0 1.382-2.546c0-1.691-1.391-3.063-3.108-3.063zM20.31 8.117c0-1.308-1.08-2.373-2.407-2.373H7.23c-1.329 0-2.409 1.065-2.409 2.373v9.043H.007V8.117C.007 4.192 3.246.999 7.23.999h10.673c3.981 0 7.221 3.193 7.221 7.118v9.043H20.31V8.117z"/>
</svg>
