<svg xmlns="http://www.w3.org/2000/svg" width="20" height="20">
    <path fill="none" d="M0 0h20v20H0V0z"/>
    <path fill-rule="evenodd" fill="#0C0C0C" d="M19.149 10.853H2.907l4.656 4.691a.86.86 0 0 1 0 1.211.846.846 0 0 1-1.203 0L.254 10.603.252 10.6a.884.884 0 0 1-.182-.276.892.892 0 0 1-.053-.265c-.002-.021-.012-.04-.012-.062 0-.023.011-.043.013-.066a.844.844 0 0 1 .236-.539L6.36 3.24a.847.847 0 0 1 1.203 0 .86.86 0 0 1 0 1.211l-4.656 4.69h16.242c.47 0 .85.384.85.856 0 .473-.38.856-.85.856z"/>
</svg>
