<svg xmlns="http://www.w3.org/2000/svg" width="36" height="36">
    <path fill-rule="evenodd" fill="#111" d="M18.171 0c9.743 0 17.641 7.897 17.641 17.64s-7.898 17.641-17.641 17.641c-9.742 0-17.64-7.898-17.64-17.641C.531 7.897 8.429 0 18.171 0z"/>
    <path fill-rule="evenodd" fill="#FFF" d="M22.39 26.769h-8.076c-2.913 0-4.914-2.362-4.914-5.275v-7.725c0-2.913 2.001-5.274 4.914-5.274h8.076c2.562 0 4.923 2.361 4.923 5.274v7.725c0 2.913-2.361 5.275-4.923 5.275zm-4.213-13.833c-2.619 0-4.742 2.654-4.742 4.741a4.742 4.742 0 1 0 9.483 0c0-2.087-2.123-4.741-4.741-4.741zm5.583-1.285c-1.294 0-1.788.494-1.788 1.104 0 .611.494 1.105 1.788 1.105-.074 0 .421-.494.421-1.105 0-.61-.495-1.104-.421-1.104zm-5.583 9.1a3.074 3.074 0 1 1 0-6.149 3.074 3.074 0 0 1 0 6.149z"/>
</svg>
