<svg xmlns="http://www.w3.org/2000/svg" width="80" height="81">
    <path fill-rule="evenodd" fill="#27D34A" d="M39.999.367c22.911 0 40 17.909 40 40s-17.089 40-40 40C17.908 80.367 0 62.458 0 40.367s17.908-40 39.999-40z"/>
    <path fill-rule="evenodd" fill="#FFF" d="M24.726 27.311c.021 9.032.007 18.065.007 27.098 3.444.018 6.893.013 10.977.002-.586-4.477-.61-8.96-.576-13.438 1.13 1.55 2.16 3.168 3.315 4.703 1.929 2.942 4.112 5.72 5.965 8.706 3.469.09 6.939-.002 10.409.053.037-.335.075-.846.075-1.272-.049-8.621.041-17.243-.048-25.862-3.431-.026-6.861.007-10.291-.013-.026 4.502.028 9.007-.031 13.507a206.68 206.68 0 0 1-8.848-13.434c-4.051-.153-7.509-.045-10.954-.05z"/>
</svg>
