<svg xmlns="http://www.w3.org/2000/svg" width="80" height="81">
    <path fill-rule="evenodd" fill="#FBE34C" d="M40 .367c22.9 0 40 17.909 40 40s-17.1 40-40 40c-22.091 0-40-17.909-40-40s17.909-40 40-40z"/>
    <path fill-rule="evenodd" fill="#111" d="M40.597 25.271c-9.717 0-17.297 6.061-17.297 13.544 0 4.811 2.967 9.025 7.867 11.435l-1.659 6.034a.494.494 0 0 0 .126.514.512.512 0 0 0 .359.144.52.52 0 0 0 .307-.115l7.129-4.692c1.032.144 2.091.225 3.168.225 9.714 0 17.597-6.062 17.597-13.545s-7.883-13.544-17.597-13.544"/>
</svg>
