<svg xmlns="http://www.w3.org/2000/svg" width="70" height="71">
    <path fill="none" d="M.437.529h69.565v69.565H.437V.529z"/>
    <path fill-rule="evenodd" fill="#111" d="M67.484 56.585c0 6.121-5.461 11.61-11.591 11.596-14.412-.006-28.824.017-43.236-.01-5.987-.179-11.226-5.574-11.239-11.567-.007-13.327-.02-26.657.04-39.985-.027-1.552-.053-3.115.136-4.657.762-4.59 4.44-8.488 8.962-9.561 2.096-.426 4.266-.26 6.395-.275 13.098.015 26.198-.017 39.296.015 5.956.133 11.212 5.537 11.189 11.499.068 14.313.052 28.63.048 42.945zm-5.04-41.901c-1.353-4.492-5.772-7.881-10.485-7.884-11.669-.01-23.34-.01-35.011 0-5.647-.029-10.746 4.871-10.972 10.509-.026 5.936-.013 11.874 0 17.814.13 5.482 4.872 10.347 10.344 10.648 4.544.109 9.093-.017 13.641.063 1.051 2.243 2.178 4.452 3.259 6.685.301.558.517 1.272 1.218 1.434.716-.137.933-.86 1.232-1.417 1.097-2.24 2.205-4.469 3.291-6.716 4.542-.049 9.086.05 13.631-.049 5.464-.305 10.193-5.159 10.332-10.636.024-4.735.004-9.472.017-14.208-.04-2.086.198-4.232-.497-6.243zM50.496 38.466c.005-1.05 0-2.098-.003-3.149.804-.035 1.732.004 2.362-.59.697-.678.697-1.716.766-2.62-1.703 1.615-4.567 1.661-6.278.04-2.377-2.249-2.016-6.662.676-8.523 1.648-1.169 4.213-1.169 5.566.47-.006-.234-.006-.703-.006-.938 1.136-.01 2.276-.01 3.415 0 0 3.217.009 6.434 0 9.65-.013 1.739-.624 3.602-2.071 4.669-1.256.953-2.909 1.059-4.427.991zm.191-12.49c-1.688.583-1.844 3.277-.263 4.073 1.366.773 3.353-.228 3.276-1.872.184-1.562-1.583-2.871-3.013-2.201zm-8.567 6.29c-2.867 2.173-7.95 1.465-9.342-2.111-1.181-2.801.449-6.349 3.451-7.068 2.129-.601 4.654-.274 6.3 1.298 2.198 2.055 2.035 6.08-.409 7.881zm-4.581-6.254c-1.787.497-2.025 3.304-.375 4.121 1.372.826 3.427-.288 3.242-1.942.185-1.502-1.483-2.709-2.867-2.179zm-10.806 7.152c-.051-3.087.065-6.18-.065-9.266.007-1.019-.531-2.037-1.559-2.335-.02-1.121-.005-2.241 0-3.365 1.041.033 2.105.261 2.94.902 1.487 1.086 2.113 3.015 2.076 4.798-.013 3.09.007 6.179-.008 9.262-1.13.011-2.257.011-3.384.004zm-10.516-1.035c.007.259.013.774.021 1.031-1.147.011-2.297.023-3.445-.023.052-4.868-.056-9.741.063-14.605 1.13.034 2.254.02 3.382.034-.041 1.816.019 3.639-.045 5.456 1.653-1.662 4.573-1.592 6.205.058 2.256 2.174 2.178 6.31-.238 8.333-1.653 1.434-4.515 1.517-5.943-.284zm1.218-6.057c-1.715.607-1.796 3.38-.13 4.109 1.385.737 3.297-.392 3.164-2.004.15-1.566-1.623-2.769-3.034-2.105z"/>
</svg>
