<svg xmlns="http://www.w3.org/2000/svg" width="37" height="36">
    <path fill-rule="evenodd" fill="#111" d="M18.39 0c9.743 0 17.92 7.897 17.92 17.64s-8.177 17.641-17.92 17.641C8.647 35.281.75 27.383.75 17.64.75 7.897 8.647 0 18.39 0z"/>
    <path fill-rule="evenodd" fill="#FFF" d="M27.72 13.206a2.496 2.496 0 0 0-1.756-1.763c-1.55-.173-7.761-.173-7.761-.173s-6.213 0-7.761.173a2.495 2.495 0 0 0-1.757 1.763C8.27 14.76 8.27 18.4 8.27 18.4s0 2.847.415 4.401a2.493 2.493 0 0 0 1.757 1.763c1.548.417 7.761.417 7.761.417s6.211 0 7.761-.417a2.494 2.494 0 0 0 1.756-1.763c.415-1.554.415-4.401.415-4.401s0-3.64-.415-5.194zm-11.504 7.788V15.13l5.161 3.27-5.161 2.594z"/>
</svg>
