<svg xmlns="http://www.w3.org/2000/svg" width="19" height="19">
    <path fill="none" d="M.999.166H19v18H.999v-18z"/>
    <path fill-rule="evenodd" fill="#111" d="M15.38 10.94c-1.21 0-2.277.603-2.932 1.52L8.6 9.961c-.478-.266-.437-.54-.437-.825 0-.285-.041-.559.437-.825l3.848-2.498a3.6 3.6 0 0 0 2.932 1.519 3.612 3.612 0 0 0 3.608-3.608A3.612 3.612 0 0 0 15.38.116a3.611 3.611 0 0 0-3.608 3.608c0 .129.024.251.038.376L7.213 6.716a3.588 3.588 0 0 0-2.657-1.188A3.611 3.611 0 0 0 .948 9.136a3.611 3.611 0 0 0 3.608 3.608 3.584 3.584 0 0 0 2.657-1.188l4.597 2.616c-.014.125-.038.247-.038.376a3.611 3.611 0 0 0 3.608 3.608 3.612 3.612 0 0 0 3.608-3.608 3.612 3.612 0 0 0-3.608-3.608z"/>
</svg>
