<svg xmlns="http://www.w3.org/2000/svg" width="80" height="81">
    <path fill-rule="evenodd" fill="#F45A5C" d="M39.999.367C62.91.367 80 18.276 80 40.367s-17.09 40-40.001 40C17.908 80.367 0 62.458 0 40.367s17.908-40 39.999-40z"/>
    <path fill-rule="evenodd" fill="#FFF" d="m45.68 38.905-.142-.615H31.699v5.637h8.013c-.829 3.956-4.276 5.591-7.432 5.591-2.298 0-4.437-.685-6.037-2.224-1.646-1.592-2.554-3.79-2.554-6.19 0-2.383.865-4.554 2.44-6.12 1.565-1.556 3.713-2.233 6.07-2.233 2.697 0 4.412 1.213 5.137 1.855l4.243-4.194c-1.193-1.029-4.447-3.631-8.989-3.631-4.447 0-8.194 1.478-10.935 4.203-2.696 2.682-4.101 6.542-4.101 10.128 0 3.587 1.325 7.263 3.942 10.628 2.801 2.209 6.771 3.704 10.863 3.704 4.451 0 7.241-1.451 9.75-4.071 2.476-2.584 3.747-6.163 3.747-9.909-.008-1.582-.167-2.523-.176-2.559zm17.13-.606h-5.038v-5.012h-3.625v5.012h-5.038v3.605h5.038v5.012h3.625v-5.012h5.038v-3.605z"/>
</svg>
