<svg xmlns="http://www.w3.org/2000/svg" width="22" height="22">
    <path fill="none" d="M0 0h22v22H0V0z"/>
    <path fill-rule="evenodd" fill="#333" d="M11.133 1.91v-.16c.767.02.317.05-.133.07-.046-.02-.091-.05-.133-.07v.16c-2.607-.607-7.599.945-7.599 6.624 0 7.348 6.225 11.427 7.599 12.237v.152s.047-.024.133-.074c.86.05.133.074.133.074v-.152c1.374-.81 7.597-4.889 7.597-12.237 0-5.679-4.756-7.231-7.597-6.624zM11 12.551a3.79 3.79 0 1 1 0-7.579c2.94 0 3.791 1.696 3.791 3.789s-.851 3.79-3.791 3.79z"/>
</svg>
