<svg xmlns="http://www.w3.org/2000/svg" width="100" height="100">
    <path fill="none" d="M0 0h99.999v100H0V0z"/>
    <path fill-rule="evenodd" d="M25.4 79.51v-1.822c0-13.528 10.819-24.535 24.9-24.535 13.487 0 24.8 11.007 24.8 24.535v1.822H25.4zm24.9-24.371c-12.753 0-22.926 9.779-22.94 22.511h45.609C72.632 64.918 62.46 55.139 50.3 55.139zm0-6.827c-7.955 0-14.185-6.115-14.185-13.631 0-7.515 6.23-13.171 14.185-13.171 7.361 0 13.591 5.656 13.591 13.171 0 7.516-6.23 13.631-13.591 13.631zm0-24.942c-6.839 0-12.162 4.89-12.162 11.311S43.461 46.326 50.3 46.326c6.245 0 11.567-5.224 11.567-11.645 0-6.421-5.322-11.311-11.567-11.311z"/>
</svg>
