<svg xmlns="http://www.w3.org/2000/svg" width="100" height="100">
    <path fill="none" d="M0 0h100v100H0V0z"/>
    <path fill-rule="evenodd" fill="#111" d="M55.231 88.13v-1.249c0-12.401 10.041-22.491 22.384-22.491S100 74.48 100 86.881v1.249H55.231zm22.384-21.555c-10.831 0-19.7 8.607-20.189 19.371h40.378c-.488-10.764-9.357-19.371-20.189-19.371zm0-6.623c-6.857 0-12.436-5.606-12.436-12.495 0-6.889 5.579-12.495 12.436-12.495 6.858 0 12.895 5.606 12.895 12.495 0 6.889-6.037 12.495-12.895 12.495zm0-22.805c-5.658 0-10.261 4.625-10.261 10.31 0 5.685 4.603 10.311 10.261 10.311 5.658 0 10.262-4.626 10.262-10.311s-4.604-10.31-10.262-10.31zm-6.237-6.442c-.89-1.523-1.914-2.971-3.01-4.354-3.198 1.908-6.638 3.941-12.125 5.502 1.025 2.755 2.647 5.517 2.412 8.28 1.658 8.096 1.745 16.227-.918 24.168-3.932 14.379-12.505 22.644-14.185 24.284-.036.035-.082.05-.122.08-.059.043-.114.087-.181.118-.072.033-.146.049.011.066-.28.011-.319.036-.367.04-1.18.108-2.385.621-3.579.621C17.637 89.51 0 71.331 0 49.551 0 29.71 15.594 12.186 35.477 10.242l.141-.133.104.114c1.184-.108 2.38.287 3.592.287 1.206 0 2.403-.39 3.592-.281.049.001.294.004.604.012 9.782.976 19.251 5.93 25.941 13.946a39.666 39.666 0 0 1 3.802 5.412c.303.52.131 1.189-.387 2.331-.518-.531-1.184-.705-1.488-1.225zm-37.65 55.739c-4.383-5.656-7.78-10.984-10.195-17.175a57.367 57.367 0 0 0-11.784 5.25c5.618 6.259 13.831 10.605 21.979 11.925zM10.324 72.829a59.582 59.582 0 0 1 12.412-5.593c-1.196-2.616-2.118-6.357-2.366-9.542-.761-2.343-1.006-3.894-1.105-7.025H2.203c.246 8.681 3.25 16.045 8.121 22.16zM2.201 48.484H19.21c.008-5.31 1.47-10.591 2.557-15.784.106-.323.225.03.335-.944a59.603 59.603 0 0 1-11.829-5.425 37.225 37.225 0 0 0-8.072 22.153zm9.492-23.846a57.436 57.436 0 0 0 11.161 5.068c3.132-7.978 7.519-13.796 10.253-16.939-8.442 1.434-15.924 5.732-21.414 11.871zM38.25 12.263c-.605.017-.81.049-1.803.095-1.9 1.955-7.685 8.399-11.5 17.986a51.32 51.32 0 0 0 13.303 1.973V12.263zm0 22.24a53.58 53.58 0 0 1-14.066-2.107c.396.359-.26.707-.379 1.074-1.608 4.941-2.414 9.964-2.422 15.014H38.25V34.503zm0 16.166H21.441c.098 2.228.335 4.459.745 6.689.567 3.087 1.473 6.176 2.641 9.26a53.444 53.444 0 0 1 13.423-1.93V50.669zm0 16.204a51.036 51.036 0 0 0-12.634 1.787c2.568 6.086 6.286 12.142 11.13 18.107.498.034 1 .058 1.504.072V66.873zm2.174 19.968c1.176-.019 1.268-.058 1.898-.106 1.8-1.812 7.629-8.165 11.533-17.854a51.353 51.353 0 0 0-13.431-2.011v19.971zm0-22.154c4.77.071 9.537.789 14.205 2.145a50.672 50.672 0 0 0 1.017-3.134c1.228-4.297 1.834-8.258 1.861-13.029H40.424v14.018zm0-16.203h17.051c-.105-2.635.185-5.275-.949-7.911-.553-2.698-1.361-5.397-2.372-8.093-3.884 1.16-8.729 1.949-13.73 2.023v13.981zm1.903-36.112c-.632-.052-.717-.087-1.903-.106v20.051c4.698-.069 9.029-.799 12.927-1.876-2.536-6.074-6.218-12.119-11.024-18.069zm3.057.388c4.321 5.617 8.346 12.04 10.061 17.06 4.855-1.461 8.446-3.364 11.512-5.168A36.983 36.983 0 0 0 45.384 12.76z"/>
</svg>
