<svg xmlns="http://www.w3.org/2000/svg" width="72" height="71">
    <path fill="none" d="M.999 0h71v71h-71V0z"/>
    <path fill-rule="evenodd" fill="#DCDCDC" d="M46.146 69.425c-3.481 1.043-7.003 1.683-10.399 1.675-15.982.181-31.43-10.962-34.886-28.142C-2.54 28.461 2.611 16.45 13.989 7.336 21.358 1.434 29.962.72 39.232.176c14.94 1.446 27.513 12.73 30.885 27.524 4.076 17.886-6.651 36.534-23.971 41.725zM35.46 7.968C20.345 7.982 7.977 20.366 7.965 35.5 7.951 50.679 20.383 63.121 35.52 63.78c15.177-.43 27.448-13.047 27.458-28.23.009-15.233-12.325-27.595-27.518-27.582zm8.775 45.357c-1.705.623-4.487.986-6.751 1.079-4.18.171-8.37.062-12.558.055-1.356-.002-1.748.111-1.751-1.803-.011-5.751-.005-11.502-.006-17.254 0-5.639-.003-11.279 0-16.919.002-1.821.296-2.113 2.11-2.113 4.113 0 8.228-.026 12.34.013 3.044.027 6.019.477 8.754 1.962 3.133 2.115 4.778 4.324 4.766 7.993-.017 5.826.051 11.654.029 17.476.141 5.469-3.036 8.399-6.933 9.511zM41.93 28.173c-.002-2.312-.58-3.634-3.135-3.971-2.133-.32-4.322-.262-6.551-.374v23.044c1.387 0 2.658.002 3.93-.002.545-.002 1.095.016 1.637-.038 2.929-.291 4.121-1.637 4.121-4.626.001-4.677.003-9.356-.002-14.033z"/>
</svg>
