<svg xmlns="http://www.w3.org/2000/svg" width="436" height="41">
    <path fill-rule="evenodd" fill="#FFF" d="M0 0h436v41H0V0z"/>
    <path fill-rule="evenodd" fill="#111" d="M434.516 40.681h-8.812V24.017l-3.957 10.699h-9.606l-4.963-10.699v16.664H397l.139-39.874h9.329s.345.992.71 1.853c2.935 6.888 6.12 13.671 9.36 20.856 2.51-5.788 4.908-11.29 7.276-16.806a252.948 252.948 0 0 1 2.629-5.903h9.473v6.461c0 9.961.07 33.413.07 33.413h-1.47zm-44.52-11.171c-.065 6.003-2.445 9.757-8.252 10.792-.697.123-1.404.219-2.114.304h-10.613c-.688-.07-1.377-.124-2.051-.238-6.176-1.057-7.522-6.112-7.665-10.396-.353-10.619-.129-18.127-.12-29.24h9.799c0 5.062.004 9.897-.002 14.731-.004 3.925.13 7.859-.073 11.774-.205 3.956 1.298 5.981 5.411 5.96 3.992-.021 5.71-1.891 5.661-5.874-.11-8.87-.034-18.041-.034-26.591h10.074c-.002 7.097.055 21.682-.021 28.778zm-62.288 7.921c.032-11.317-.055-22.636.135-33.952.012-.814-.344-2.747 1.642-2.747h21.583v7.532h-12.761v7.639h12.612v7.758h-12.59v9.148h12.739v7.797h-22.119c-.957-.561-1.246-1.653-1.241-3.175zm-14.11-19.793c6.511 2.434 8.974 6.79 8.002 13.871-.397 2.896-1.582 5.226-3.523 6.854-2.666 2.236-6.394 2.556-9.738 2.635-2.558.059-5.127-.047-7.654-.466-2.167-.36-4.283-.945-5.928-2.464-1.106-1.019-1.96-2.292-2.585-3.654a14.439 14.439 0 0 1-1.279-6.77c.011-.184.205-2.16.327-2.147.521.052 5.925 0 8.412 0 .039 0 .195 1.478.217 1.619.076.515.152.998.347 1.483.894 2.226 2.095 4.102 4.591 4.59 1.937.379 4.245-.018 5.79-1.299 2.543-2.108 1.485-4.771-1.373-6.098-3.273-1.519-6.756-2.589-10.114-3.934-5.75-2.311-7.714-5.882-7.038-12.598.383-3.787 2.143-6.527 5.421-7.99 1.048-.737 4.654-1.278 8.941-1.278 3.15 0 5.929.293 7.598.74h.071c5.702 1.638 7.68 5.79 6.416 13.08h-9.029s.041-.369-.452-3.208c-.572-3.296-5.496-4.357-7.965-2.022-2.098 1.984-1.439 4.915 1.538 6.056 2.951 1.132 6.044 1.894 9.007 3zm-28.9 11.872c-.064 6.003-2.445 9.757-8.253 10.792-.696.123-1.403.219-2.113.304h-10.613c-.688-.07-1.377-.124-2.052-.238-6.176-1.057-7.521-6.112-7.665-10.396-.352-10.619-.128-18.127-.12-29.24h9.799c.001 5.062.004 9.897-.001 14.731-.003 3.925.13 7.859-.072 11.774-.207 3.956 1.297 5.981 5.41 5.96a9.803 9.803 0 0 0 1.578-.129c2.866-.478 4.125-2.333 4.083-5.745-.11-8.87-.034-18.041-.034-26.591h10.073c-.002 7.097.056 21.682-.02 28.778zm-39.571 11.171h-8.812V24.017l-3.956 10.699h-9.606l-4.963-10.699v16.664h-10.178l.139-39.874h9.329s.342.992.71 1.853c2.934 6.888 6.117 13.671 9.359 20.856 2.509-5.788 4.909-11.29 7.276-16.806 1.382-3.216 2.629-5.903 2.629-5.903h9.474l-.001 6.461c0 9.961.07 33.413.07 33.413h-1.47zm-55.543-.075h-8.813V23.942l-3.956 10.699h-9.607l-4.962-10.699v16.664h-10.177l.139-39.874h9.329s.342.992.709 1.855c2.935 6.887 6.119 13.668 9.36 20.855 2.509-5.789 4.908-11.29 7.276-16.805a252.86 252.86 0 0 1 2.63-5.905h9.472v6.461c-.001 9.963.07 33.413.07 33.413h-1.47zM134.798.732h9.706v39.874h-9.715l.009-39.874zm-29.076 0h9.627v32.117c3.999 0 13.839-.028 13.839-.028v7.785h-23.466V.732zm-31.643 0h24.02v7.54H84.446v7.642h13.653v7.767H84.561v9.168c3.923 0 9.797.14 13.538-.041v7.798H74.221s-.143-27.105-.142-39.874zM56.661 34.198h-9.652l-1.621 6.408s-9.649.109-10.165 0c2.221-7.62 4.423-15.507 6.645-23.09C43.303 12.624 46.172.732 46.172.732h11.727s10.942 38.73 10.915 39.874H58.458l-1.797-6.408zm-4.477-20.26c-.264-.022-.53.022-.795 0-.725 3.726-1.452 7.452-2.228 11.432h5.148c-.732-3.909-1.428-7.706-2.125-11.432zm-28.856 25.83c-3.338.48-6.715.707-10.104.838H.056S-.049 2.276.056.732h22.45c5.895 1.27 8.525 5.243 8.515 12.108-.009 5.577.028 11.157-.01 16.735-.038 5.341-2.524 9.452-7.683 10.193zM15.258 8.28c-1.609.042-3.222.008-5.017.008v24.553c1.387 0 2.423-.002 3.459 0 6.565.022 7.307-.711 7.313-7.236.003-3.773-.209-7.564.053-11.318.305-4.359-1.658-6.116-5.808-6.007z"/>
</svg>
