<svg xmlns="http://www.w3.org/2000/svg" width="40" height="40">
    <path fill="none" d="M0 0h40v39.999H0V0z"/>
    <path fill-rule="evenodd" fill="#FFF" d="M28.108 25.818H12.237c-.635 0-.973.012-.551-1.201l2.011-2.224c.302.207.469-.763.469-1.209v-3.322c0-2.885 2.12-5.273 5.634-5.032v-2.048c0-.603-.231-1.091.372-1.091s1.092.488 1.092 1.091v2.208c3.646-.366 4.915 2.139 4.915 5.28v2.914c0 .446.166 1.416.469 1.209l2.011 2.224c1.131 1.213.084 1.201-.551 1.201zm-7.936 3.399c-1.525 0-2.761-.717-2.761-2.706h5.522c0 1.989-1.236 2.706-2.761 2.706z"/>
</svg>
