<svg xmlns="http://www.w3.org/2000/svg" width="36" height="36">
    <path fill="none" d="M0 0h36v36H0V0z"/>
    <path fill-rule="evenodd" fill="#111" d="M30.3 5.511h-2.868V3.73c0-.404.548-.734-.744-.734-.41 0-.745.33-.745.734v1.781h-3.645V3.73a.74.74 0 0 0-.744-.734.74.74 0 0 0-.743.734v1.781h-3.646V3.73a.74.74 0 0 0-.744-.734c-.321 0-.743.33-.743.734v1.781H12.32V3.73c0-.404-.622-.734-1.033-.734a.74.74 0 0 0-.743.734v1.781H3.993V33.1h28.98V5.511H30.3zM12.91 27.954H9.879v-2.991h3.031v2.991zm0-6.98H9.879v-2.991h3.031v2.991zm0-5.983H9.879V12h3.031v2.991zm7.072 12.963h-3.031v-2.991h3.031v2.991zm0-6.98h-3.031v-2.991h3.031v2.991zm0-5.983h-3.031V12h3.031v2.991zm7.548 12.963h-3.3v-2.991h3.3v2.991zm0-6.98h-3.3v-2.991h3.3v2.991zm0-5.983h-3.3V12h3.3v2.991z"/>
</svg>
