<svg xmlns="http://www.w3.org/2000/svg" width="50" height="50">
    <path fill="none" d="M0 0h50v50H0V0z"/>
    <path fill-rule="evenodd" d="M45.118 40.009H4.87c-1.61 0-2.466-1.921-1.398-3.138l5.102-5.814a4.799 4.799 0 0 0 1.186-3.161v-8.688c0-7.587 5.435-13.89 12.585-15.157V2.745c0-1.508 1.186-2.73 2.649-2.73s2.649 1.222 2.649 2.73v1.312c7.241 1.313 12.583 7.957 12.583 15.586v8.253a4.8 4.8 0 0 0 1.188 3.161l5.102 5.814c1.068 1.217.213 3.138-1.398 3.138zM24.994 50.015c-3.867 0-7.003-3.167-7.003-7.075h14.006c0 3.908-3.136 7.075-7.003 7.075z"/>
</svg>
